<svg width="166" height="24" viewBox="0 0 166 24" fill="none" xmlns="http://www.w3.org/2000/svg">
<path fill-rule="evenodd" clip-rule="evenodd" d="M24.7898 8.13227L18.7722 2.22189C18.0862 1.51862 17.2665 0.959741 16.3613 0.578158C15.4561 0.196576 14.4837 0 13.5014 0C12.5192 0 11.5468 0.196576 10.6416 0.578158C9.73643 0.959741 8.91669 1.51862 8.23064 2.22189L2.21608 8.13227C1.51477 8.81507 0.957348 9.63155 0.576725 10.5335C0.196102 11.4354 0 12.4045 0 13.3835C0 14.3625 0.196102 15.3316 0.576725 16.2335C0.957348 17.1354 1.51477 17.9519 2.21608 18.6347L2.97603 19.3817C4.32709 20.7093 11.3678 23.743 12.0011 23.9995V12.5229C11.9944 12.3479 11.9359 12.1788 11.833 12.0372C11.73 11.8955 11.5873 11.7877 11.423 11.7273L7.67203 10.2595C7.36564 10.516 6.98255 10.6632 6.58325 10.6777C6.18395 10.6922 5.7912 10.5732 5.46703 10.3395C5.14286 10.1058 4.90574 9.77076 4.79312 9.38725C4.6805 9.00373 4.69879 8.59361 4.84511 8.22166C4.99143 7.84971 5.25744 7.53711 5.60112 7.33325C5.94481 7.12938 6.34659 7.04586 6.74301 7.09587C7.13944 7.14589 7.50791 7.32659 7.79024 7.60943C8.07257 7.89228 8.25267 8.26116 8.3021 8.65781L11.9522 10.0835C12.9449 10.4854 14.055 10.4854 15.0477 10.0835L18.6978 8.65781C18.747 8.26086 18.9271 7.89163 19.2095 7.60845C19.4918 7.32527 19.8605 7.14429 20.2572 7.0941C20.6538 7.04391 21.0559 7.12736 21.3999 7.33128C21.7439 7.53519 22.0101 7.84795 22.1566 8.22014C22.3031 8.59233 22.3214 9.00272 22.2087 9.3865C22.096 9.77028 21.8587 10.1056 21.5343 10.3394C21.2099 10.5732 20.8169 10.6922 20.4173 10.6776C20.0177 10.663 19.6344 10.5157 19.3279 10.2588L15.5767 11.7273C15.4123 11.7877 15.2696 11.8955 15.1667 12.0372C15.0638 12.1789 15.0053 12.3479 14.9986 12.5229V23.9995C15.6319 23.7462 22.6728 20.7131 24.0236 19.3817L24.7869 18.6347C25.4874 17.9514 26.044 17.1348 26.4241 16.2329C26.8042 15.3311 27 14.3622 27 13.3835C27 12.4048 26.8042 11.4359 26.4241 10.5341C26.044 9.6322 25.4874 8.81557 24.7869 8.13227H24.7898ZM13.5012 7.85949C12.9987 7.8594 12.5118 7.685 12.1234 7.36601C11.735 7.04701 11.4692 6.60317 11.3712 6.11009C11.2732 5.61701 11.3492 5.10521 11.5862 4.66188C11.8231 4.21855 12.2064 3.87113 12.6707 3.6788C13.135 3.48647 13.6516 3.46114 14.1324 3.60712C14.6133 3.75311 15.0287 4.06137 15.3078 4.47939C15.587 4.89742 15.7126 5.39933 15.6633 5.89963C15.614 6.39993 15.3929 6.86766 15.0375 7.22312C14.63 7.63054 14.0775 7.85943 13.5014 7.85949H13.5012Z" fill="white"/>
<path fill-rule="evenodd" clip-rule="evenodd" d="M24.9475 8.4707L15.158 21.9567V24.0001C15.7829 23.7501 22.7308 20.7566 24.0637 19.4425L24.8163 18.7056C26.1897 17.3655 26.975 15.5346 26.9995 13.6153C27.024 11.6961 26.2856 9.84565 24.9469 8.47096L24.9475 8.4707Z" fill="white"/>
<path fill-rule="evenodd" clip-rule="evenodd" d="M8.21637 8.42626L9.02818 4.0401L11.6107 4.52349C11.8421 4.15705 12.1773 3.86866 12.5731 3.69543C12.9689 3.52221 13.4072 3.47208 13.8315 3.55152C14.2559 3.63095 14.6469 3.83629 14.9542 4.14112C15.2615 4.44595 15.4711 4.83631 15.5559 5.26194L23.2105 6.69469L18.6811 2.22269C17.9984 1.51916 17.1826 0.960086 16.2819 0.578366C15.3811 0.196647 14.4135 0 13.436 0C12.4585 0 11.4909 0.196647 10.5902 0.578366C9.68939 0.960086 8.87365 1.51916 8.19096 2.22269L2.20526 8.13532C1.50738 8.81837 0.952673 9.63514 0.573909 10.5374C0.195145 11.4396 0 12.4091 0 13.3884C0 14.3678 0.195145 15.3372 0.573909 16.2395C0.952673 17.1417 1.50738 17.9585 2.20526 18.6415L2.96149 19.3888C3.42252 19.8444 4.5493 20.5005 5.85654 21.1765L7.85995 10.352L7.63456 10.2633C7.33748 10.5134 6.96768 10.6598 6.58076 10.6805C6.19384 10.7011 5.81071 10.5949 5.48898 10.3778C5.16724 10.1606 4.92429 9.84434 4.79665 9.47643C4.669 9.10853 4.66357 8.70889 4.78116 8.3376C4.89875 7.96632 5.13301 7.64346 5.44872 7.41756C5.76443 7.19167 6.14452 7.07494 6.53186 7.08494C6.9192 7.09493 7.29284 7.23111 7.59661 7.47299C7.90039 7.71488 8.11787 8.0494 8.21637 8.42626Z" fill="white"/>
<path fill-rule="evenodd" clip-rule="evenodd" d="M17.5264 1.22555L9.17662 4.23529L8.52637 2.18069C9.70816 0.966195 11.2386 0.211545 12.8712 0.0382808C14.5038 -0.134983 16.1436 0.283226 17.5264 1.22555Z" fill="white"/>
<path d="M47.64 13.38V4.06H50.28V13.78C50.28 15.5 49.7933 16.68 48.82 17.32C47.86 17.96 46.3933 18.28 44.42 18.28C42.46 18.28 40.9867 17.96 40 17.32C39.04 16.68 38.56 15.5 38.56 13.78V4.06H41.22V13.4C41.22 14.32 41.4667 14.96 41.96 15.32C42.4533 15.68 43.2733 15.86 44.42 15.86C45.6067 15.86 46.44 15.68 46.92 15.32C47.4 14.96 47.64 14.3133 47.64 13.38ZM63.7838 18H52.1838V17.36C54.6638 14 57.2104 10.3267 59.8238 6.34H52.6238V4.06H63.9238V4.66C62.9371 6.26 61.6504 8.21333 60.0638 10.52C58.5304 12.7467 57.2704 14.48 56.2838 15.72H63.7838V18ZM74.9056 13.38V4.06H77.5456V13.78C77.5456 15.5 77.059 16.68 76.0856 17.32C75.1256 17.96 73.659 18.28 71.6856 18.28C69.7256 18.28 68.2523 17.96 67.2656 17.32C66.3056 16.68 65.8256 15.5 65.8256 13.78V4.06H68.4856V13.4C68.4856 14.32 68.7323 14.96 69.2256 15.32C69.719 15.68 70.539 15.86 71.6856 15.86C72.8723 15.86 73.7056 15.68 74.1856 15.32C74.6656 14.96 74.9056 14.3133 74.9056 13.38ZM90.1894 4.06H92.8094V18H89.5894C87.7627 14.6 85.716 11.1 83.4494 7.5V18H80.8694V4.06H84.3294C86.316 7.18 88.2694 10.5333 90.1894 14.12V4.06ZM101.67 18V4.06H111.59V6.34H104.31V10.28H109.65V12.54H104.31V18H101.67ZM113.35 18V4.06H115.99V18H113.35ZM119.502 18V4.06H122.142V15.7H128.722V18H119.502ZM130.518 18V4.06H133.158V18H130.518ZM148.93 18H146.01C145.317 16.2667 144.87 15.1067 144.67 14.52H138.57L137.49 18H134.71C136.203 13.32 137.89 8.67333 139.77 4.06H143.91C145.577 9.35333 147.25 14 148.93 18ZM141.97 6.3H141.43C140.75 8.04667 140.03 10.0333 139.27 12.26H143.91C143.217 10.3 142.57 8.31333 141.97 6.3ZM150.303 18V4.06H152.943V15.7H159.523V18H150.303ZM161.319 18V4.06H163.959V18H161.319Z" fill="white"/>
</svg>
