<svg width="19" height="18" viewBox="0 0 19 18" fill="none" xmlns="http://www.w3.org/2000/svg">
<path d="M8.4167 0.317322L16.8189 1.51831L18.0191 9.92094L10.217 17.7227C10.0578 17.8818 9.84196 17.9712 9.61689 17.9712C9.39182 17.9712 9.17596 17.8818 9.01679 17.7227L0.613749 9.32003C0.454625 9.16086 0.365234 8.94502 0.365234 8.71996C0.365234 8.4949 0.454625 8.27906 0.613749 8.11989L8.4167 0.317322ZM10.8171 7.51983C10.9747 7.67743 11.1619 7.80244 11.3679 7.88771C11.5739 7.97298 11.7946 8.01685 12.0176 8.01681C12.2405 8.01677 12.4613 7.97283 12.6672 7.88748C12.8732 7.80214 13.0603 7.67706 13.2179 7.5194C13.3755 7.36174 13.5005 7.17458 13.5858 6.96861C13.6711 6.76264 13.7149 6.54189 13.7149 6.31897C13.7149 6.09604 13.6709 5.87531 13.5856 5.66937C13.5002 5.46343 13.3751 5.27631 13.2175 5.11871C13.0598 4.9611 12.8726 4.8361 12.6666 4.75082C12.4607 4.66555 12.2399 4.62168 12.017 4.62172C11.5667 4.6218 11.135 4.80072 10.8167 5.11913C10.4983 5.43754 10.3196 5.86935 10.3196 6.31957C10.3197 6.76978 10.4987 7.20153 10.8171 7.51983Z" fill="#030904"/>
</svg>
