<svg width="184" height="51" viewBox="0 0 184 51" fill="none" xmlns="http://www.w3.org/2000/svg">
<path fill-rule="evenodd" clip-rule="evenodd" d="M52.334 17.2811L39.6303 4.72153C38.182 3.22706 36.4514 2.03945 34.5404 1.22859C32.6295 0.417725 30.5767 0 28.503 0C26.4294 0 24.3766 0.417725 22.4657 1.22859C20.5547 2.03945 18.8241 3.22706 17.3758 4.72153L4.6784 17.2811C3.19786 18.732 2.02107 20.467 1.21753 22.3836C0.413994 24.3002 0 26.3595 0 28.4399C0 30.5203 0.413994 32.5796 1.21753 34.4962C2.02107 36.4128 3.19786 38.1478 4.6784 39.5987L6.28273 41.186C9.13496 44.0072 23.9987 50.4539 25.3356 50.999V26.6112C25.3216 26.2393 25.198 25.88 24.9807 25.579C24.7634 25.278 24.4622 25.0488 24.1152 24.9205L16.1965 21.8014C15.5497 22.3466 14.7409 22.6593 13.898 22.69C13.055 22.7208 12.2259 22.468 11.5415 21.9714C10.8572 21.4748 10.3566 20.7629 10.1188 19.9479C9.88105 19.1329 9.91967 18.2614 10.2286 17.471C10.5375 16.6806 11.099 16.0164 11.8246 15.5831C12.5502 15.1499 13.3984 14.9725 14.2353 15.0787C15.0721 15.185 15.85 15.569 16.4461 16.17C17.0421 16.7711 17.4223 17.555 17.5266 18.3978L25.2324 21.4274C27.3282 22.2814 29.6716 22.2814 31.7674 21.4274L39.4732 18.3978C39.5771 17.5543 39.9571 16.7697 40.5533 16.168C41.1494 15.5662 41.9277 15.1816 42.7651 15.075C43.6025 14.9683 44.4514 15.1456 45.1776 15.579C45.9037 16.0123 46.4658 16.6769 46.775 17.4678C47.0842 18.2587 47.123 19.1308 46.8851 19.9463C46.6472 20.7618 46.1462 21.4743 45.4613 21.9711C44.7764 22.468 43.9467 22.7209 43.1032 22.6899C42.2596 22.6589 41.4504 22.3458 40.8033 21.8L32.884 24.9205C32.5371 25.0488 32.2359 25.278 32.0186 25.579C31.8013 25.8801 31.6778 26.2393 31.6636 26.6112V50.999C33.0006 50.4608 47.8649 44.0154 50.7166 41.186L52.328 39.5987C53.8067 38.1467 54.9819 36.4114 55.7842 34.4949C56.5866 32.5785 57 30.5197 57 28.4399C57 26.3601 56.5866 24.3013 55.7842 22.3849C54.9819 20.4684 53.8067 18.7331 52.328 17.2811H52.334ZM28.5026 16.7014C27.4418 16.7012 26.4138 16.3306 25.5938 15.6528C24.7739 14.9749 24.2127 14.0317 24.0059 12.9839C23.7991 11.9361 23.9594 10.8486 24.4597 9.90649C24.9599 8.96442 25.769 8.22614 26.7492 7.81745C27.7294 7.40875 28.8199 7.35493 29.8351 7.66514C30.8503 7.97535 31.7272 8.63041 32.3166 9.51871C32.9059 10.407 33.1711 11.4736 33.067 12.5367C32.963 13.5999 32.4961 14.5938 31.7459 15.3491C30.8856 16.2149 29.7192 16.7013 28.5029 16.7014H28.5026Z" fill="#90D72D"/>
<path fill-rule="evenodd" clip-rule="evenodd" d="M52.6668 18L32 46.6578V51C33.3193 50.4688 47.9871 44.1075 50.8011 41.3151L52.3898 39.7491C55.2892 36.9015 56.9471 33.0107 56.9988 28.9323C57.0504 24.8539 55.4918 20.9218 52.6655 18.0005L52.6668 18Z" fill="#90D72D"/>
<path fill-rule="evenodd" clip-rule="evenodd" d="M17.3457 17.9058L19.0595 8.5852L24.5115 9.61241C25 8.83373 25.7076 8.22089 26.5432 7.85279C27.3787 7.48469 28.304 7.37818 29.1999 7.54697C30.0957 7.71576 30.9212 8.15212 31.57 8.79988C32.2188 9.44765 32.6612 10.2772 32.8402 11.1816L49 14.2262L39.4378 4.72322C37.9966 3.22822 36.2745 2.04018 34.3728 1.22903C32.4712 0.417875 30.4285 0 28.3649 0C26.3014 0 24.2586 0.417875 22.357 1.22903C20.4554 2.04018 18.7333 3.22822 17.292 4.72322L4.65555 17.2875C3.18224 18.739 2.0112 20.4747 1.21159 22.392C0.411972 24.3092 0 26.3693 0 28.4504C0 30.5315 0.411972 32.5916 1.21159 34.5088C2.0112 36.4261 3.18224 38.1618 4.65555 39.6133L6.25204 41.2011C7.22533 42.1693 9.60408 43.5636 12.3638 45L16.5932 21.9979L16.1174 21.8095C15.4902 22.341 14.7096 22.6521 13.8927 22.696C13.0759 22.7399 12.2671 22.5142 11.5878 22.0528C10.9086 21.5914 10.3957 20.9192 10.1263 20.1374C9.85678 19.3556 9.84531 18.5064 10.0936 17.7174C10.3418 16.9284 10.8363 16.2424 11.5028 15.7623C12.1693 15.2823 12.9718 15.0342 13.7895 15.0555C14.6072 15.0767 15.396 15.3661 16.0373 15.8801C16.6786 16.3941 17.1377 17.105 17.3457 17.9058Z" fill="#90D72D"/>
<path fill-rule="evenodd" clip-rule="evenodd" d="M37 2.60429L19.3728 9L18 4.63396C20.4949 2.05316 23.7258 0.449532 27.1725 0.0813467C30.6191 -0.286839 34.0808 0.601854 37 2.60429Z" fill="#90D72D"/>
<path d="M70 10H73V27H70V10Z" fill="#575756"/>
<path d="M88 12.3845H83.0068V27H79.9713V12.3845H75V10H88V12.3845Z" fill="#575756"/>
<path d="M93 18.5C93 13.3998 96.2967 10 101.242 10C105.484 10 108.56 12.4746 109 16.1978H106.033C105.703 13.9167 103.79 12.389 101.242 12.389C98.1857 12.389 96.1431 14.8422 96.1431 18.5006C96.1431 22.1589 98.1871 24.6119 101.242 24.6119C103.791 24.6119 105.703 23.0624 106.033 20.7599H109C108.56 24.5042 105.462 27 101.242 27C96.2973 27 93 23.5999 93 18.5Z" fill="#575756"/>
<path d="M124 24.6155V27H112V10H123.737V12.3845H115.028V17.0882H122.948V19.4719H115.028V24.6141L124 24.6155Z" fill="#575756"/>
<path d="M139 10V27H136.243L128.757 14.769H128.714L128.778 27H126V10H128.778L136.243 22.2755H136.286L136.222 10H139Z" fill="#575756"/>
<path d="M154 12.3845H149.007V27H145.971V12.3845H141V10H154L154 12.3845Z" fill="#575756"/>
<path d="M168 24.6155V27H156V10H167.736V12.3845H159.027V17.0882H166.947V19.4719H159.027V24.6141L168 24.6155Z" fill="#575756"/>
<path d="M177.405 20.0894H173.898V26.9997H171V10H177.406C180.996 10 183.412 11.9434 183.412 14.8351C183.412 17.0884 182.194 18.787 180.178 19.5818L184 27H180.766L177.405 20.0894ZM173.898 17.8361H177.553C179.275 17.8361 180.43 16.7321 180.43 15.0543C180.43 13.4646 179.275 12.3828 177.553 12.3828H173.899L173.898 17.8361Z" fill="#575756"/>
<path d="M111.092 34.242H112.1V40.612C112.1 42.0587 111.759 43.0293 111.078 43.524C110.443 43.972 109.473 44.196 108.166 44.196C106.869 44.196 105.903 43.972 105.268 43.524C104.577 43.02 104.232 42.0493 104.232 40.612V34.242H105.254V40.626C105.254 41.6993 105.478 42.418 105.926 42.782C106.393 43.1367 107.144 43.314 108.18 43.314C109.216 43.314 109.958 43.132 110.406 42.768C110.863 42.3947 111.092 41.6807 111.092 40.626V34.242ZM119.692 44H113.84V43.622C115.781 41.27 117.251 39.3193 118.25 37.77H114.064V36.93H119.678V37.28C119.053 38.2507 118.297 39.3287 117.41 40.514C116.523 41.6993 115.837 42.5813 115.352 43.16H119.692V44ZM126.064 43.076V36.93H126.974V43.636C126.143 44.0093 125.191 44.196 124.118 44.196C123.072 44.196 122.349 43.9673 121.948 43.51C121.537 43.0433 121.332 42.18 121.332 40.92V36.93H122.242V40.738C122.242 41.7833 122.377 42.4787 122.648 42.824C122.928 43.16 123.469 43.328 124.272 43.328C124.962 43.328 125.56 43.244 126.064 43.076ZM129.994 37.84V44H129.084V37.294C129.485 37.1167 129.942 36.9813 130.456 36.888C131.025 36.7853 131.52 36.734 131.94 36.734C132.985 36.734 133.708 36.9627 134.11 37.42C134.52 37.8867 134.726 38.75 134.726 40.01V44H133.816V40.192C133.816 39.128 133.676 38.4327 133.396 38.106C133.125 37.77 132.584 37.602 131.772 37.602C131.118 37.602 130.526 37.6813 129.994 37.84ZM144.733 37.77H142.115V41.62C142.115 42.236 142.213 42.6747 142.409 42.936C142.605 43.1973 142.946 43.328 143.431 43.328C143.945 43.328 144.393 43.258 144.775 43.118L144.985 43.93C144.481 44.1073 143.963 44.196 143.431 44.196C142.591 44.196 142.013 44.0233 141.695 43.678C141.369 43.3233 141.205 42.642 141.205 41.634V37.77H139.959V36.93H141.205V35.446L142.115 35.068V36.93H144.733V37.77ZM151.069 43.076V36.93H151.979V43.636C151.149 44.0093 150.197 44.196 149.123 44.196C148.078 44.196 147.355 43.9673 146.953 43.51C146.543 43.0433 146.337 42.18 146.337 40.92V36.93H147.247V40.738C147.247 41.7833 147.383 42.4787 147.653 42.824C147.933 43.16 148.475 43.328 149.277 43.328C149.968 43.328 150.565 43.244 151.069 43.076ZM154.999 37.84V44H154.089V37.294C154.901 36.9207 155.816 36.734 156.833 36.734C157.701 36.734 158.336 36.8973 158.737 37.224C159.615 36.8973 160.483 36.734 161.341 36.734C162.368 36.734 163.068 36.9627 163.441 37.42C163.824 37.8773 164.015 38.7407 164.015 40.01V44H163.105V40.192C163.105 39.1467 162.97 38.4513 162.699 38.106C162.429 37.77 161.92 37.602 161.173 37.602C160.445 37.602 159.792 37.7047 159.213 37.91C159.409 38.4607 159.507 39.1607 159.507 40.01V44H158.597V40.192C158.597 39.128 158.467 38.4327 158.205 38.106C157.944 37.77 157.435 37.602 156.679 37.602C156.063 37.602 155.503 37.6813 154.999 37.84ZM171.594 39.478V43.636C170.782 44.0093 169.83 44.196 168.738 44.196C167.693 44.196 166.956 44.0233 166.526 43.678C166.088 43.3233 165.868 42.7027 165.868 41.816C165.868 40.9013 166.106 40.2807 166.582 39.954C167.049 39.6367 167.744 39.478 168.668 39.478C169.322 39.478 169.994 39.5527 170.684 39.702C170.684 38.834 170.544 38.2693 170.264 38.008C169.975 37.7373 169.42 37.602 168.598 37.602C167.758 37.602 167.082 37.714 166.568 37.938L166.302 37.084C167.114 36.8507 167.898 36.734 168.654 36.734C169.718 36.734 170.474 36.93 170.922 37.322C171.37 37.714 171.594 38.4327 171.594 39.478ZM170.684 43.048V40.472C170.208 40.3507 169.574 40.29 168.78 40.29C168.034 40.29 167.53 40.3787 167.268 40.556C167.016 40.724 166.89 41.1207 166.89 41.746C166.89 42.4367 167.012 42.88 167.254 43.076C167.506 43.272 168.015 43.37 168.78 43.37C169.434 43.37 170.068 43.2627 170.684 43.048ZM174.632 37.84V44H173.722V37.294C174.124 37.1167 174.581 36.9813 175.094 36.888C175.664 36.7853 176.158 36.734 176.578 36.734C177.624 36.734 178.347 36.9627 178.748 37.42C179.159 37.8867 179.364 38.75 179.364 40.01V44H178.454V40.192C178.454 39.128 178.314 38.4327 178.034 38.106C177.764 37.77 177.222 37.602 176.41 37.602C175.757 37.602 175.164 37.6813 174.632 37.84ZM181.474 36.93H182.384V44H181.474V36.93ZM181.474 34.354C181.558 34.2793 181.717 34.242 181.95 34.242C182.183 34.242 182.337 34.2793 182.412 34.354C182.487 34.4193 182.524 34.564 182.524 34.788C182.524 35.0307 182.482 35.194 182.398 35.278C182.323 35.3527 182.174 35.39 181.95 35.39C181.717 35.39 181.558 35.3527 181.474 35.278C181.399 35.2033 181.362 35.04 181.362 34.788C181.362 34.564 181.399 34.4193 181.474 34.354Z" fill="#575756"/>
</svg>